Coordinates
version=1
nRows=12
nColumns=33
inDegrees=yes

Units are S.I. units (second, meters, Newtons, ...)
Angles are in degrees.

endheader
time	ground_thorax_rot_x	ground_thorax_rot_y	ground_thorax_rot_z	ground_thorax_tx	ground_thorax_ty	ground_thorax_tz	clav_prot_r	clav_elev_r	scapula_abduction_r	scapula_elevation_r	scapula_upward_rot_r	scapula_winging_r	shoulder_elv_r	plane_of_elev_r	axial_rot_r	elbow_flexion_r	pro_sup_r	wrist_flex_r	wrist_dev_r	clav_prot_l	clav_elev_l	scapula_abduction_l	scapula_elevation_l	scapula_upward_rot_l	scapula_winging_l	shoulder_elv_l	plane_of_elev_l	axial_rot_l	elbow_flexion_l	pro_sup_l	wrist_flex_l	wrist_dev_l
      9.44000000	    -38.53008573	     -7.80701771	      6.09868229	    -54.78803025	    841.72086508	    -50.54091225	     19.54962789	    -45.00000000	     36.96588985	    -45.00000000	    -28.79568771	    264.23312282	  -1906.77859522	    157.07422270	      9.60925504	   1797.94373740	    160.55230028	     16.93262975	     14.44992276	      4.16222520	     28.83249360	    -30.69717309	    -45.00000000	    -45.00000000	   4034.78395827	  -7100.34385433	     20.43891349	   -179.99999979	   1782.59501900	   -397.16752556	     -1.42859852	     -9.43981697
      9.45000000	    -38.58696287	     -8.10557856	      6.32815374	    -52.98708057	    841.07238760	    -50.66437805	     20.06925250	    -45.00000000	     36.89663084	    -45.00000000	    -29.05024877	    264.29449484	  -1906.85050731	    156.90435369	      9.42193795	   1797.98613173	    160.34896590	     16.91319189	     14.39841686	      4.45954742	     28.86400672	    -30.75317536	    -45.00000000	    -45.00000000	   4034.94931959	  -7100.47195800	     20.62836452	   -179.99999979	   1782.64173749	   -394.61576842	     -1.77624353	     -9.48993954
      9.46000000	    -38.62962584	     -8.04670855	      6.10672477	    -51.16308991	    840.40535621	    -50.76748088	     20.03403645	    -45.00000000	     37.18978343	    -45.00000000	    -28.62619199	    264.37893943	  -1906.99011878	    156.92733764	      9.07856176	   1797.90855894	    160.14882714	     16.84716216	     14.52689449	      4.69869846	     28.88446543	    -30.81547000	    -45.00000000	    -45.00000000	   4034.84806782	  -7100.40608030	     20.68076402	   -179.99999979	   1782.51609494	   -392.20128447	     -1.77023364	     -9.30691982
      9.47000000	    -38.66512105	     -7.88907802	      5.87292210	    -49.31461129	    839.72908251	    -50.85119445	     19.90250150	    -45.00000000	     37.26315296	    -45.00000000	    -27.97848807	    264.51961918	  -1907.05878528	    156.94217362	      8.81739950	   1797.96677309	    159.93330275	     16.75387501	     14.55893923	      4.84312052	     28.85930874	    -31.05376542	    -45.00000000	    -45.00000000	   4034.69823177	  -7100.41316392	     20.69215965	   -179.99999979	   1782.54505345	   -389.70913227	     -1.64806857	     -9.12792805
      9.48000000	    -38.62983940	     -6.96824103	      4.75497661	    -47.44110227	    839.05157801	    -50.91651335	     19.12755693	    -45.00000000	     37.71730598	    -45.00000000	    -25.75547683	    264.55491620	  -1907.22570145	    157.05581072	      8.78570367	   1797.96014304	    159.63455915	     16.60576614	     14.65984365	      4.69573489	     28.49095949	    -31.48144185	    -45.00000000	    -45.00000000	   4034.33088712	  -7100.32900238	     20.73050341	   -179.99999979	   1782.33014040	   -384.73973119	     -1.06227038	     -8.64545126
      9.49000000	    -38.71063970	     -7.20940592	      4.89824403	    -45.52476900	    838.37228743	    -50.96524347	     19.47038261	    -45.00000000	     37.71556101	    -45.00000000	    -26.23348388	    264.74897333	  -1907.30369543	    156.94107419	      8.19810138	   1797.85122095	    159.40039851	     16.54346376	     14.77668669	      5.26350868	     28.71606908	    -31.54257861	    -45.00000000	    -45.00000000	   4034.40115122	  -7100.36959856	     20.76627107	   -179.99999979	   1782.38663799	   -382.56330282	     -1.37139811	     -8.56080101
      9.50000000	    -38.70383333	     -7.01140245	      4.57641725	    -43.57223761	    837.69833615	    -50.99600851	     19.34056119	    -45.00000000	     37.94856707	    -45.00000000	    -25.55078122	    264.87771762	  -1907.33245305	    156.99590920	      7.94295319	   1797.79270617	    159.23092317	     16.44953726	     14.87589106	      5.56017668	     28.76947375	    -31.73274870	    -45.00000000	    -45.00000000	   4034.23047039	  -7100.32384478	     20.79207988	   -179.99999979	   1782.38658708	   -380.43092264	     -1.24393168	     -8.36522407
      9.51000000	    -38.72429082	     -6.76856264	      4.24683078	    -41.59567575	    837.04221017	    -51.00511156	     19.24280356	    -45.00000000	     38.15020075	    -45.00000000	    -24.74748609	    264.96274303	  -1907.46382393	    156.99930175	      7.71692726	   1797.81424947	    159.07074729	     16.33323487	     14.94535802	      5.78958409	     28.75411564	    -31.98212190	    -45.00000000	    -45.00000000	   4034.14159640	  -7100.28600818	     20.84592126	   -179.99999979	   1782.39067493	   -378.24179498	     -1.16008816	     -8.18490636
      9.52000000	    -38.72436504	     -6.54352563	      3.92825148	    -39.62178252	    836.42245787	    -50.98819324	     19.14584847	    -45.00000000	     38.39569912	    -45.00000000	    -23.96107443	    265.02996803	  -1907.57810975	    157.00399278	      7.48736447	   1797.81468061	    158.93517144	     16.21710227	     15.02658761	      6.00109631	     28.73861829	    -32.21248163	    -45.00000000	    -45.00000000	   4034.04547785	  -7100.25014045	     20.89200708	   -179.99999979	   1782.39264967	   -376.06584241	     -1.07378032	     -8.00486965
      9.53000000	    -38.66493527	     -6.10723661	      3.38636910	    -37.65101086	    835.83547194	    -50.94504693	     18.76984077	    -45.00000000	     38.76963145	    -45.00000000	    -22.65095209	    265.12390753	  -1907.62120148	    157.14133739	      7.26723661	   1797.76645109	    158.83159491	     16.09567521	     15.12649331	      6.07753987	     28.64027459	    -32.53240979	    -45.00000000	    -45.00000000	   4033.83362322	  -7100.21681134	     20.87950088	   -179.99999979	   1782.37945180	   -373.61299313	     -0.69609499	     -7.77655882
      9.54000000	    -38.65558896	     -6.04019030	      3.27497604	    -35.69012285	    835.28185529	    -50.87706539	     18.88495490	    -45.00000000	     38.93765449	    -45.00000000	    -22.25990442	    265.11390241	  -1907.75119300	    157.03742850	      7.04401272	   1797.75017692	    158.75668157	     15.99466648	     15.19915078	      6.38388266	     28.68345768	    -32.64116640	    -45.00000000	    -45.00000000	   4033.82242912	  -7100.16426135	     21.01810715	   -179.99999979	   1782.37394832	   -371.55689956	     -0.83391333	     -7.63659814
      9.55000000	    -38.61884167	     -5.80792658	      2.99262145	    -33.72601653	    834.74402127	    -50.78882372	     18.79627344	    -45.00000000	     39.29004373	    -45.00000000	    -21.30942686	    265.11208697	  -1907.86079492	    157.06644302	      6.84524196	   1797.76635830	    158.74348210	     15.86236939	     15.29844878	      6.53555573	     28.67297341	    -32.87993745	    -45.00000000	    -45.00000000	   4033.71333853	  -7100.14702996	     21.02117578	   -179.99999979	   1782.35254965	   -369.55190200	     -0.67705466	     -7.47191622
